<svg xmlns="http://www.w3.org/2000/svg" viewBox="0 0 310.62 50.49">
  <path
    d="M47.83-1h6.93V14.61h.14a8.94,8.94,0,0,1,3.49-4.11,11.41,11.41,0,0,1,11.15,0,9.68,9.68,0,0,1,3.62,4.09,14,14,0,0,1,1.28,6.19V39.16H67.51v-17a8,8,0,0,0-1.64-5.33,5.75,5.75,0,0,0-4.62-1.94,6.12,6.12,0,0,0-3.41.94,6.21,6.21,0,0,0-2.27,2.56,8.34,8.34,0,0,0-.81,3.77v17H47.83Z"
  />
  <path
    d="M85.52,37.9a12.64,12.64,0,0,1-5-5.29,17.72,17.72,0,0,1-1.77-8.2v-.05a17.62,17.62,0,0,1,1.78-8.17,12.69,12.69,0,0,1,5-5.29A14.59,14.59,0,0,1,93,9.05a14.75,14.75,0,0,1,7.53,1.85,12.72,12.72,0,0,1,5,5.27,17.65,17.65,0,0,1,1.78,8.19v.05a17.82,17.82,0,0,1-1.77,8.23,12.48,12.48,0,0,1-5,5.27,16.33,16.33,0,0,1-15.08,0ZM96.9,33a7.19,7.19,0,0,0,2.49-3.32,14.09,14.09,0,0,0,.88-5.28v-.05a13.87,13.87,0,0,0-.89-5.24,7.4,7.4,0,0,0-2.52-3.31A6.51,6.51,0,0,0,93,14.67a6.41,6.41,0,0,0-3.77,1.14,7.42,7.42,0,0,0-2.53,3.31,13.47,13.47,0,0,0-.91,5.24v.05a13.68,13.68,0,0,0,.91,5.28A7.39,7.39,0,0,0,89.26,33a7,7,0,0,0,7.64,0Z"
  />
  <path
    d="M115.87,37.74c-1.5-1.33-2.24-3.52-2.24-6.57V15h-4.18V9.66h4.18V2.17h7V9.66h5.48V15h-5.48V30.62a3.74,3.74,0,0,0,1,3,4.22,4.22,0,0,0,2.82.82,8.69,8.69,0,0,0,.94,0l.76-.07V39.5c-.41,0-.9.11-1.49.16a19.3,19.3,0,0,1-2,.09Q118.11,39.75,115.87,37.74Z"
  />
  <path
    d="M135,37.74c-1.5-1.33-2.24-3.52-2.24-6.57V15h-4.18V9.66h4.18V2.17h7V9.66h5.48V15h-5.48V30.62a3.74,3.74,0,0,0,1,3,4.23,4.23,0,0,0,2.83.82,8.62,8.62,0,0,0,.93,0l.76-.07V39.5c-.41,0-.9.11-1.49.16a19.16,19.16,0,0,1-2,.09Q137.23,39.75,135,37.74Z"
  />
  <path
    d="M153.16,38.54a8.51,8.51,0,0,1-3.48-3.15,8.71,8.71,0,0,1-1.23-4.63V30.7a7.46,7.46,0,0,1,2.93-6.22q2.94-2.3,8.28-2.6l11.27-.7v4.6l-10.29.63a7.12,7.12,0,0,0-3.93,1.23,3.36,3.36,0,0,0-1.36,2.81v0a3.38,3.38,0,0,0,1.38,2.85,5.85,5.85,0,0,0,3.66,1,7.69,7.69,0,0,0,3.57-.8,6.41,6.41,0,0,0,2.49-2.2,5.54,5.54,0,0,0,.92-3.15V19.37a4.59,4.59,0,0,0-1.4-3.52,5.79,5.79,0,0,0-4.05-1.29,6.72,6.72,0,0,0-3.93,1,4.37,4.37,0,0,0-1.83,2.69l-.06.25h-6.4l0-.33a9,9,0,0,1,1.75-4.7,10.31,10.31,0,0,1,4.24-3.27,16,16,0,0,1,6.45-1.19,15.6,15.6,0,0,1,6.41,1.22,9.77,9.77,0,0,1,4.2,3.43,8.93,8.93,0,0,1,1.49,5.17V39.16h-6.9V34.62h-.17A9.21,9.21,0,0,1,165,37.3a9.66,9.66,0,0,1-3,1.75,10.77,10.77,0,0,1-3.66.61A11.4,11.4,0,0,1,153.16,38.54Z"
  />
  <path
    d="M180.17-1h6.91V39.16h-6.91Zm5.9,22.91h1.17l11-12.25h8l-13.75,15h-1.28L186.07,30Zm2.82,3.84,4.42-5.12,13.44,18.53h-8Z"
  />
  <path
    d="M213.39,37.88a12.26,12.26,0,0,1-4.88-5.29,18.05,18.05,0,0,1-1.7-8.1v0a18.15,18.15,0,0,1,1.71-8.12A12.86,12.86,0,0,1,213.34,11a13.62,13.62,0,0,1,7.33-1.92A13.8,13.8,0,0,1,228,10.9a12.27,12.27,0,0,1,4.73,5.19,17.39,17.39,0,0,1,1.66,7.79v2.23H210.23V21.49H231l-3.34,4.31V23.13a11.32,11.32,0,0,0-.89-4.81,6.42,6.42,0,0,0-2.45-2.88,6.59,6.59,0,0,0-3.59-1,6.83,6.83,0,0,0-3.66,1,6.62,6.62,0,0,0-2.5,2.94,11.24,11.24,0,0,0-.91,4.73V25.8a10.73,10.73,0,0,0,.91,4.61,6.67,6.67,0,0,0,2.57,2.92,7.5,7.5,0,0,0,4,1,7.74,7.74,0,0,0,3-.55,6.41,6.41,0,0,0,2.15-1.4,4.94,4.94,0,0,0,1.19-1.87l0-.19H234l-.06.31A10.89,10.89,0,0,1,230,36.91,12.76,12.76,0,0,1,226.13,39a16,16,0,0,1-5.13.77A14.85,14.85,0,0,1,213.39,37.88Z"
  />
  <path
    d="M239.65,38.44a4.07,4.07,0,1,1,2.87,1.17A3.87,3.87,0,0,1,239.65,38.44Z"
  />
  <path
    d="M257,48.42a11.76,11.76,0,0,1-4.63-2.94,8.16,8.16,0,0,1-2.14-4.18l-.06-.25H257l.11.23a4.52,4.52,0,0,0,2.3,2.13,10.13,10.13,0,0,0,4.41.85,7.4,7.4,0,0,0,5.2-1.67,5.81,5.81,0,0,0,1.81-4.49V33.85h-.14a8.61,8.61,0,0,1-2.15,2.72,10.13,10.13,0,0,1-3.15,1.79,11.75,11.75,0,0,1-3.91.64A11.47,11.47,0,0,1,255,37.19a11.68,11.68,0,0,1-4.23-5.14,19.33,19.33,0,0,1-1.49-7.92v0a19.21,19.21,0,0,1,1.52-8,12,12,0,0,1,4.27-5.2,11.43,11.43,0,0,1,6.48-1.83,10,10,0,0,1,3.84.71,9.58,9.58,0,0,1,3.08,2,10.31,10.31,0,0,1,2.16,2.95h.16v-5h6.93V38.33a10.26,10.26,0,0,1-1.69,5.86,11.14,11.14,0,0,1-4.82,3.91,18.2,18.2,0,0,1-7.4,1.39A19.79,19.79,0,0,1,257,48.42Zm10.4-15.92A7.65,7.65,0,0,0,270,29.23a12.62,12.62,0,0,0,.9-5v0a12.33,12.33,0,0,0-.92-5A7.47,7.47,0,0,0,267.4,16a6.36,6.36,0,0,0-3.76-1.14A6.64,6.64,0,0,0,259.77,16a7.31,7.31,0,0,0-2.53,3.23,12.7,12.7,0,0,0-.89,5v0a12.84,12.84,0,0,0,.89,5,7.29,7.29,0,0,0,2.53,3.24,6.64,6.64,0,0,0,3.87,1.14A6.35,6.35,0,0,0,267.43,32.5Z"
  />
  <path
    d="M289.9,48.42a11.76,11.76,0,0,1-4.63-2.94,8.16,8.16,0,0,1-2.14-4.18l-.06-.25h6.79l.11.23a4.52,4.52,0,0,0,2.3,2.13,10.13,10.13,0,0,0,4.41.85,7.4,7.4,0,0,0,5.2-1.67,5.81,5.81,0,0,0,1.81-4.49V33.85h-.14a8.61,8.61,0,0,1-2.15,2.72,10.13,10.13,0,0,1-3.15,1.79,11.7,11.7,0,0,1-3.91.64,11.47,11.47,0,0,1-6.44-1.81,11.68,11.68,0,0,1-4.23-5.14,19.33,19.33,0,0,1-1.49-7.92v0a19.21,19.21,0,0,1,1.52-8,12,12,0,0,1,4.27-5.2,11.45,11.45,0,0,1,6.48-1.83,10,10,0,0,1,3.84.71,9.58,9.58,0,0,1,3.08,2,10.31,10.31,0,0,1,2.16,2.95h.16v-5h6.93V38.33a10.26,10.26,0,0,1-1.69,5.86,11.14,11.14,0,0,1-4.82,3.91,18.2,18.2,0,0,1-7.4,1.39A19.79,19.79,0,0,1,289.9,48.42ZM300.3,32.5a7.65,7.65,0,0,0,2.52-3.27,12.62,12.62,0,0,0,.9-5v0a12.33,12.33,0,0,0-.92-5A7.47,7.47,0,0,0,300.27,16a6.36,6.36,0,0,0-3.76-1.14A6.64,6.64,0,0,0,292.64,16a7.31,7.31,0,0,0-2.53,3.23,12.7,12.7,0,0,0-.89,5v0a12.84,12.84,0,0,0,.89,5,7.29,7.29,0,0,0,2.53,3.24,6.64,6.64,0,0,0,3.87,1.14A6.35,6.35,0,0,0,300.3,32.5Z"
  />
  <path
    d="M29.71,17.85a15.22,15.22,0,0,0-3.65-5.08l-1.28-1.18a.36.36,0,0,0-.51,0,.47.47,0,0,0-.07.12l-.57,1.64a9.35,9.35,0,0,1-1.94,3.12.27.27,0,0,1-.18.09.2.2,0,0,1-.19-.07.22.22,0,0,1-.09-.21,17,17,0,0,0-2.37-8.9,15.66,15.66,0,0,0-5.93-6.29L11.11.05a.35.35,0,0,0-.53.32l.1,2.12a9.46,9.46,0,0,1-.5,3.78A12.4,12.4,0,0,1,8.11,9.86,13,13,0,0,1,6,11.9,15.56,15.56,0,0,0,1.6,17.25a15.37,15.37,0,0,0,7.88,21,15.66,15.66,0,0,0,12.07,0,15.32,15.32,0,0,0,8.16-20.38Z"
  />
</svg>
